<svg id="Capa_1" data-name="Capa 1" xmlns="http://www.w3.org/2000/svg" viewBox="0 0 1034.39 146.26"><defs><style>.cls-1{fill:#fff;}</style></defs><path class="cls-1" d="M855.79,38.46c3.92,3.52,4.64,5.65,2.31,10.15-2.58,5-5.74,9.69-8.68,14.55,0,0,.2.32.4.36,9.59,1.89,12.28,5.38,8.82,14.58a84.88,84.88,0,0,1-11.3,20.18c-8.26,11.21-16.94,22.17-28.12,30.81-8.12,6.27-17.29,8.06-27.19,6.72-7.9-1.07-12.25-5.26-13.8-13.06a101,101,0,0,1-1.75-12.1c-.3-3.91-.07-7.86-.07-12.63l-2.84,3c-7.6,8.17-14.13,17.5-23.83,23.45-4.2,2.58-8.8,5.1-13.54,6.08-11.54,2.37-25.08-6.74-28.31-18.27-.53-1.88-.89-3.81-1.32-5.69-4.3,3.09-8.55,6-12.61,9.17-.7.54-.71,2.09-.83,3.2-.65,6.12-.73,12.36-2,18.36-1.59,7.81-7.43,10-14.32,5.88a26.86,26.86,0,0,1-11-12.6c-1-2.39-1.94-4.86-2.92-7.34-3.49,2.53-6.68,5.25-10.23,7.34-15,8.82-31.5,6.51-43.68-5.85a24.32,24.32,0,0,1-6.88-13.06c-2-11.17-2-22.26,1.5-33.2,5.05-15.86,11.27-31.14,21-44.87,10.62-15,24.5-25.11,42.53-29.31C687.56-.4,708.82,11,715.28,29.89c2,5.7,4,11.37,6.3,17.9,1.14-2.29,1.93-4.12,2.94-5.83,4.87-8.25,9.5-16.67,14.82-24.62A25.47,25.47,0,0,1,754.72,6.92c7.55-1.89,12.88,1.8,13.42,9.53.25,3.53.05,7.09.05,11.57,1.82-1.49,3.15-2.61,4.52-3.68,5.11-4,10.31-7.76,17.16-8.19,4.86-.3,8.13,1.11,9.53,5.81,1.6,5.36,2.28,11,3.45,17,1.24-1.46,2.55-3,3.82-4.53,12.64-15.34,29.63-21.16,48.75-22.08,4.21-.2,9,.06,11.16,4.34s-.39,8.15-2.94,11.6S858.51,35,855.79,38.46ZM605.51,96.06c.41,4.47.88,8.13,1.08,11.8.8,15.07,19.39,24.77,30.54,23,10.37-1.67,18.24-7,24.93-14.67.88-1,2.55-1.36,3.86-2,.57,1.33,1.52,2.63,1.66,4,.89,8.23,4,15.23,10.91,20.12,4.61,3.24,7.22,2.49,8-2.92,1-6.46,1.09-13,1.4-19.58.1-2.12.08-4,2.63-4.56,5.83-1.31,9.72-5.36,12.64-10a95.79,95.79,0,0,0,13.24-33.59,42.49,42.49,0,0,0,.78-10.18c-.68-11.06-4.22-21.18-9.77-30.85-7-12.16-17.25-18.32-30.93-18C659,9,645,17.15,633.83,30.2c-13.23,15.41-20.73,33.74-26.15,53C606.45,87.6,606.13,92.25,605.51,96.06Zm157.7-73.82c0-1.58.07-3.17,0-4.74-.31-5.3-3-7.55-7.79-5.38-4.41,2-9.2,4.67-12,8.41-5.4,7.21-9.74,15.26-14.08,23.2a53.76,53.76,0,0,0-5.44,13.47c-2.67,11.66-5.2,23.27-9.83,34.43s-4.16,22.82,8.46,31.22c5.63,3.74,11.13,4.19,17.15,1.57,9.58-4.16,16.29-11.66,23.35-19,15.8-16.48,25.79-36,32.34-57.6A41.69,41.69,0,0,0,796,27.5c-1.18-6.22-3.41-7.51-9.42-5.68a16.57,16.57,0,0,0-5,2.37c-3.71,2.72-7.22,5.69-10.86,8.5-2.54,2-3.62,4.47-4.21,7.66C764.3,52.75,760.42,64.62,753,75a22.71,22.71,0,0,1-6.11,6c-1.66,1-4.66,1.63-6.11.79s-2.3-3.72-2.31-5.72a23.4,23.4,0,0,1,1.7-7.63,76.54,76.54,0,0,1,16.15-26.91C761.53,35.89,763.76,29.69,763.21,22.24Zm91.7,21.07c-2.7.22-4.74-.2-6.06.59-6.18,3.73-12.12,7.85-18.24,11.67-1.12.7-2.67.69-4,1,.17-1.53-.22-3.61.63-4.48a33.19,33.19,0,0,1,6.67-4.82c9.33-5.71,18.86-11.2,24.85-20.84,1.39-2.23,2.16-4.85,3.21-7.29-2.73-.66-5.51-2-8.17-1.84-20.86,1.6-38.4,9.67-49.13,28.38C798,57.27,792.69,69.63,787,81.72a57.23,57.23,0,0,0-4.07,11.07,62.42,62.42,0,0,0,.38,29.73c1,4,3.16,7.06,7.38,7.9,8.59,1.72,16.94,1.1,24.09-4.43,15.86-12.24,27.9-27.78,37.68-45.11,1.26-2.23,1.69-5,2.27-7.52s-.69-4.07-3.21-4.44c-4.14-.59-7.81.18-10.71,3.54-3.43,4-6.82,8-10.62,11.64-1,1-3.5.48-5.31.66,0-1.71-.69-4,.14-5,2.93-3.82,5.8-8.16,9.74-10.61,7.75-4.81,12.4-12,17.18-19.2C853,48.23,853.62,46.2,854.91,43.31Zm-112,34c7.28-4.08,16.55-22.36,16.8-32C751.76,54.71,745.83,64.63,742.92,77.29Z"/><path class="cls-1" d="M926.32,92.85c-.85,1.4-1.76,2.76-2.54,4.2-9.37,17.47-24.88,27.82-42,36.21a21.66,21.66,0,0,1-5.28,1.6c-9,1.82-15.32-1.88-17.78-10.75a61.6,61.6,0,0,1-1.56-27.8c2.87-15.51,6-31,10-46.28a46.36,46.36,0,0,1,25.49-31c6-2.94,11.83-6.36,17.86-9.3,6.46-3.14,13.26-5.2,20.59-4.37s10.4,5,8.56,12A25.41,25.41,0,0,1,935,25.86c-2.67,3.53-5.87,6.66-8.88,10,6.92,3.83,8.57,7.69,5.21,14.71-3.09,6.47-7.12,12.49-10.82,18.86,4.83,1.1,8.24,4.57,10.4,10.36,1.21-3.29,2-5.88,3.1-8.37,7.19-17,14.16-34,21.8-50.75a43.1,43.1,0,0,1,9.63-12.83c7.39-7,17.18-5.61,23.15,2.68A31.65,31.65,0,0,1,994.5,29c0,2.19,0,4.38,0,6.67,5-5.17,9.76-10.21,14.71-15a38.56,38.56,0,0,1,7.5-5.72c8.48-4.86,18.18.95,17.66,10.8a58.77,58.77,0,0,1-2.85,15.08c-9.18,27.86-17.82,56-33.14,81.33a53,53,0,0,1-12.64,14.36c-9.71,7.48-20.56,3.65-23.55-8.12-1.86-7.32-2.32-15-3.35-22.53a10.78,10.78,0,0,0-.83-4.18c-.62,1.18-1.26,2.36-1.87,3.55a98.08,98.08,0,0,1-17.93,25.36,23.72,23.72,0,0,1-4.27,3.48c-6.74,4.19-14.06.66-14-7.21a87.68,87.68,0,0,1,2.43-17.51c1.17-5.48,3.1-10.81,4.7-16.2Zm36.61,13.49c1.31,6.52,2.56,14.55,4.6,22.38,1.47,5.64,5.41,7.53,11,5.76a17.57,17.57,0,0,0,7.35-4.3,79,79,0,0,0,9-11.89c11.45-18.36,18.07-38.85,25.25-59,3.65-10.26,6.24-20.9,9.11-31.42,1-3.66-.49-6.85-3.58-8.95s-5.89-.29-8.29,1.56c-12.9,10-22.91,22-27.4,38.09a55.21,55.21,0,0,1-2.85,8.6c-.58,1.25-2.32,2-3.53,2.92-.56-1.44-1.75-3-1.55-4.3a45.8,45.8,0,0,1,2.45-8.3c3.14-8.87,5.22-17.92,5.07-27.41A28.53,28.53,0,0,0,984.88,14c-4.48-6.58-11.12-7.59-16.58-1.93a52.08,52.08,0,0,0-8.95,12.41c-14.66,29-25.24,59.56-33.3,91a46.1,46.1,0,0,0-1.16,11c0,4.08,3,5.59,6.39,3.41a16.52,16.52,0,0,0,4.43-3.88c5.18-7.1,11-13.9,15-21.62,5.78-11,11-22.4,12.21-35.11a3.85,3.85,0,0,1,.61-2.23,3.9,3.9,0,0,1,2.54-1.26,2.58,2.58,0,0,1,1.74,1.76,13.12,13.12,0,0,1-.2,3.89C966.17,82.46,964.67,93.54,962.93,106.34ZM861.05,105c.64,5.33.94,10.48,1.92,15.49,1.75,9,6.64,11.86,15.2,8.64,5-1.89,9.65-4.77,14.3-7.46,15-8.69,25.54-21.31,32.09-37.28,1.73-4.22.48-7.78-3.3-9.15C918,74,914.71,74,911.57,76.35a126.49,126.49,0,0,1-12.4,8.38c-1.15.68-3.09,0-4.67,0,.23-1.55-.11-3.82.78-4.51,4.3-3.36,8.91-6.33,13.45-9.37,1.51-1,3.43-1.54,4.71-2.75a52.19,52.19,0,0,0,13.35-19.79c.69-1.81.62-5.57-.23-6-2.13-1-4.91-.65-7.42-.56-.76,0-1.47,1-2.25,1.51-6.67,4-13.3,8-20.1,11.72-1.15.63-3.08-.17-4.65-.31.4-1.51.32-3.57,1.3-4.43a61,61,0,0,1,10.08-7.47c4.78-2.71,10.59-4,14.72-7.37,5.83-4.78,10.53-10.94,15.68-16.54a4.08,4.08,0,0,0,.62-1.44c1.53-4.59.11-7.46-4.61-7.09a55.08,55.08,0,0,0-16.72,3.72,176.42,176.42,0,0,0-22.05,11.43C884.51,29.45,879,34.79,875.77,42,866.75,62.1,864,83.63,861.05,105Z"/><path class="cls-1" d="M367.75,112.85c-11,14.86-23.62,25.6-40.66,29.66-5.73,1.37-12.16,2-17.86.9-13.16-2.59-19.66-10.75-20.16-25-.79-22.27,2.8-43.78,13.69-63.63,6.74-12.28,14.27-24,24.91-33.33A57.4,57.4,0,0,1,349.3,9.58c19-5.75,32.5,3.28,34.23,23.09.2,2.34,0,4.71,0,7.44,2.69-4,4.8-8,7.65-11.31,8.17-9.55,18.84-15.52,30.46-19.76,6-2.21,12.35-3.68,18.54-5.45a12.49,12.49,0,0,1,2.72-.47c5.28-.28,10.64,0,13.81,4.88s1.86,10.11-1,14.57c-4.38,6.94-9.36,13.5-14,20.13.19,0,.94,0,1.7.11,6.89.64,10.58,5.78,7.89,12.21-1.95,4.65-5.16,8.79-8.05,13-1.47,2.14-3.49,3.9-5.58,6.18,1.14.53,2,1,2.87,1.34,8.23,3.56,12,10.83,8.29,18.86-3.93,8.38-8.52,16.77-14.44,23.79a131.86,131.86,0,0,1-22.38,20.39C399.31,148,385.17,147,375,137a23.2,23.2,0,0,1-7.27-17.32Zm-43-17.56c-10.15,0-12.9-4.64-8.4-13.26a13.94,13.94,0,0,1,1-1.72c5.06-7,11-13,19.12-16.59,1.16-.51,2.58-1.14,3.16-2.14,2.36-4.09,6.23-5.6,10.45-6.3a85.42,85.42,0,0,1,12.15-1.17,15.15,15.15,0,0,0,12.4-6.58c5.72-7.62,5.15-22.12-1.44-29a18.31,18.31,0,0,0-6.86-4.3c-9.28-3.32-17.65.16-25.65,4.36-14.24,7.49-22.6,20.51-30.83,33.61-10.14,16.15-14.14,34.17-15.79,52.8-.52,5.83.1,11.81.63,17.68.73,8,5.45,13.12,13,15.09a32,32,0,0,0,12.76,1c19.1-3.07,33.23-13.79,43.38-29.94C368.8,101,372,92.32,370.28,83c-2.55-14.22-9-19.16-21.35-17.48a40.77,40.77,0,0,0-13,4.2,35.1,35.1,0,0,0-15.17,15.07c-.75,1.44-.52,3.39-.74,5.11,1.75-.22,3.65-.07,5.2-.74,2-.87,3.66-2.55,5.63-3.55a3.65,3.65,0,0,1,3.19,0,3.19,3.19,0,0,1,.8,3q-4.08,7.22-8.67,14.11c-.45.68-2,.6-3.11.87-.28-1.14-1-2.41-.75-3.4C322.7,98.53,323.79,97.12,324.78,95.29Zm47,21.47c-.68,14.29,12.52,25,24.25,22.91,4.53-.82,9.55-2.34,13-5.2,8.73-7.3,17.31-15,24.74-23.58,4.77-5.52,7.75-12.73,10.88-19.48,1.83-3.94-.06-7.56-3.87-10.12s-8-2.62-11.3,0c-4.05,3.15-7.93,6.53-12.12,9.48a48.13,48.13,0,0,1-9.6,5.31c-1.36.55-4,0-4.88-1s-.43-3.53.34-4.87a29.65,29.65,0,0,1,21.21-15,18.82,18.82,0,0,0,11.85-6.93c2.19-2.63,4.59-5.09,6.62-7.83a28.46,28.46,0,0,0,3.65-6.5c1.47-3.77.05-6.13-4-6.1-3.6,0-7.55.21-10.72,1.68-5.55,2.58-10.56,6.31-15.94,9.3-1.13.62-2.9.11-4.38.12.52-1.43.61-3.38,1.62-4.17a88.94,88.94,0,0,1,9.25-6c11.39-6.87,21.81-14.7,28.14-26.91,1.86-3.59,4.29-7.48,1.85-11-2.57-3.73-7.35-3.38-11.3-2.15-9.26,2.89-18.73,5.49-27.5,9.53-14.26,6.57-24.35,17.18-27.93,33.16-2,9.11-4.95,18-6.85,27.16C376.2,91.17,374.13,104,371.82,116.76ZM355.23,59.07c4.16,2.07,8.34,3.28,11.33,5.87s5.14,6.74,7.92,10.59l6.93-27.84C375.52,58,366,59.93,355.23,59.07Z"/><path class="cls-1" d="M85.06,54.05l12.8,14.26c.62-1.24,1.76-3.25,2.62-5.37,5.46-13.43,14.82-24.16,24.22-34.83a121.17,121.17,0,0,1,12-12,29.71,29.71,0,0,1,9.44-5.51c12.11-4.17,23.19,3.9,23.41,16.71,0,.63.12,1.26.22,2.25a28,28,0,0,1,3.54-.68c4-.26,8.15-.94,12.14-.52,7.74.81,12.54,5.89,13.66,13.58a46.68,46.68,0,0,1-4.23,26.9c-10,21.42-24.65,38.68-44.77,51.29-7.14,4.47-13.9,9.53-22.29,11.54-10.48,2.51-20.21.76-28.84-5.6-2.27-1.67-3.88-4.55-5.14-7.18S92.2,113.35,91.3,110c-.87,1-1.55,1.66-2.12,2.41a101.45,101.45,0,0,1-34.34,29.11c-11.76,6.08-24.42,5.81-36.89,2-5.22-1.58-8.89-5.42-11.43-10.32A57.64,57.64,0,0,1,.15,109.39C-1,86.12,4.79,65,18.45,45.84c9.28-13,20.38-24,32.59-34.12C62.85,2,86.07-.19,98.4,7.37c8.68,5.32,11.59,12.42,8.78,22.18C103.74,41.47,96,49.57,85.06,54.05Zm-80,47c-.43,9.42.64,19.91,5.79,29.7C13,134.69,15.78,137.84,20,139c11.07,3,22.51,3.77,32.63-2.13A148.79,148.79,0,0,0,77.5,118.29c13.17-12,17.26-27.68,15-44.95C91.16,63.25,82.49,57.1,72.36,58c-2.09.19-4.23.72-6.27.45-1.4-.18-2.65-1.47-4-2.26,1.24-1,2.32-2.58,3.75-3,2.09-.66,4.45-.38,6.64-.79,15-2.81,25.7-9.81,29.93-24.51,2.07-7.21.27-11.85-6.12-15.84-8-5-16.92-4.61-25.68-3.36-4.29.61-9,2-12.43,4.4A144.11,144.11,0,0,0,22.7,48.62C11.86,64.09,5.55,80.78,5.1,101.05Zm189.19-52c0-1.58.11-3.17,0-4.74-.57-7.36-4.15-11.17-11.57-11.24-4.11,0-8.27,1.11-12.34,2a4.4,4.4,0,0,0-2.62,2.57c-4.29,12.89-13.33,22.21-23.18,30.87A46.27,46.27,0,0,1,136,74.15c-1,.56-2.66.07-4,.06a19.8,19.8,0,0,1,.34-3.88,42.17,42.17,0,0,1,1.83-3.93c5.66-13.93,14.52-25.18,27.48-33.08a6,6,0,0,0,2.52-3.58c2-10.12-6.7-18-16.33-14.34a34.4,34.4,0,0,0-12.1,8.47,249.46,249.46,0,0,0-20.82,24.22c-8.18,11.18-14.7,23.36-16.48,37.51a90.86,90.86,0,0,1-2,11.63c-2.05,7.76.44,14.84,2.88,21.93a7.35,7.35,0,0,0,2.89,3.11,28.9,28.9,0,0,0,23.64,4.7c7.92-1.77,14.22-6.54,20.94-10.69a110.64,110.64,0,0,0,37.94-38.86C189.81,68.68,194.75,59.72,194.29,49.05Zm-33.58-8.53c-9.41,5.89-15.24,14.77-20.26,24.32C148.81,58.1,156.37,50.69,160.71,40.52Z"/><path class="cls-1" d="M523.65,77.41c5.26,10.81,10.61,21.46,15.63,32.26,2.23,4.78,3.57,9.85,2.5,15.32-1.89,9.64-9.49,14.16-18.85,10.71-10.08-3.72-18.28-10.26-25.59-18-1.53-1.61-2.83-3.44-4.27-5.21-2.7,4.26-5,8.68-8,12.45-3.79,4.68-8.2,8.86-12.41,13.18a16,16,0,0,1-3.18,2.33c-10.16,6.24-18.83,2.51-19.66-9.32-.65-9.35-.72-19.08,1.11-28.21,4-19.84,8.83-39.54,16.85-58.28a80.34,80.34,0,0,1,20.53-28.15c7.71-6.95,29-9.83,40.57-1.51,17,12.2,21.84,35.73,10.36,53.17-3.31,5-8.5,6.75-13.64,8.72A14.13,14.13,0,0,1,523.65,77.41ZM453.3,120.56l.44.1c.17,2.49.25,5,.55,7.47.44,3.63.3,8.05,4.13,9.67,4.19,1.77,7.91-.92,11.05-3.61,9.33-8,17.11-17.11,20.23-29.44a3.82,3.82,0,0,1,2.46-2.49c.86-.07,2.23,1.2,2.69,2.2,6.09,13.28,17.24,20.83,30,26.6a10,10,0,0,0,3.07.7c3.91.4,7.57-1.79,8.37-5.63.59-2.88,1.07-6.22.2-8.9-4.58-14.08-10.67-27.44-20.5-38.81-1.05-1.21-2.15-3.59-1.63-4.65s3.1-2.27,4.55-2c9.45,1.49,20.52-8.88,21.39-19.24,1.07-12.74-2.59-23.3-12.5-32-9.71-8.55-30.36-6-37.2.65a80.87,80.87,0,0,0-18.83,27c-6.87,16.49-10.93,33.79-15,51.08C455.11,106.19,454.42,113.43,453.3,120.56Z"/><path class="cls-1" d="M269,73.05c3.48,5.83,7.18,11.41,10.21,17.34a38.43,38.43,0,0,1,3.55,11.2c1.66,10.12-6.9,20.69-17.12,21.1-12.92.51-24.07-4.54-34.89-11.94-.94,1.79-2,3.68-2.95,5.62A52.85,52.85,0,0,1,205,140.27a24.81,24.81,0,0,1-9.28,2.93c-7.62.65-12-3.83-12.33-11.53-.57-14.37,2.76-28,8.19-41.11,6.89-16.65,13.67-33.38,21.34-49.67a130.5,130.5,0,0,1,21.32-32.1C244.84-2.91,259.34-1.59,268.9,5c13,8.89,20.32,21.44,20.7,37.14C290,56.79,283,67.45,269,73.05Zm-80.54,53.74v2.37c0,8.65,4.27,11.59,12.11,7.69a61.64,61.64,0,0,0,11.91-8.25c6.91-5.83,10.76-13.81,14.44-21.87,1.89-4.11,3.38-4.06,6.67-1,9.25,8.49,20.35,12.29,32.83,11.82A10.08,10.08,0,0,0,272,115c6.68-5.61,7.65-12,3.58-21a76,76,0,0,0-14.63-21.38c-.93-1-1-2.72-1.49-4.11,1.38-.44,2.94-1.53,4.13-1.22,4.33,1.15,7.7-.43,10.95-3a25.07,25.07,0,0,0,9.9-17.78c1.48-14.73-4.81-26.34-15.73-35.61-10.17-8.64-22.95-7.93-31.5,2.29-6,7.22-12.09,14.84-16.12,23.25C211.7,56.06,203.38,76.11,195,96.1A79.55,79.55,0,0,0,188.43,126.79Z"/></svg>