<?xml version="1.0" encoding="utf-8"?>
<!-- Generator: Adobe Illustrator 24.1.2, SVG Export Plug-In . SVG Version: 6.00 Build 0)  -->
<svg version="1.1" id="Capa_1" xmlns="http://www.w3.org/2000/svg" xmlns:xlink="http://www.w3.org/1999/xlink" x="0px" y="0px"
	 viewBox="0 0 431.2 431.2" style="enable-background:new 0 0 431.2 431.2;" xml:space="preserve">
<style type="text/css">
	.st0{fill:#FFFFFF;}
</style>
<g>
	<path class="st0" d="M215.6,431.2c118.7,0,215.6-96.9,215.6-215.6C431.2,96.9,334.3,0,215.6,0S0,96.9,0,215.6
		S96.9,431.2,215.6,431.2L215.6,431.2z M215.6,28c103.6,0,187.6,84,187.6,187.6s-84,187.6-187.6,187.6S28,319.2,28,215.6
		S112,28,215.6,28L215.6,28z"/>
	<path class="st0" d="M120.4,232.4h78.4v78.4c0,7.8,6.2,14,14,14s14-6.2,14-14v-78.4h84c7.8,0,14-6.2,14-14s-6.2-14-14-14h-84v-84
		c0-7.8-6.2-14-14-14s-14,6.2-14,14v84h-78.4c-7.8,0-14,6.2-14,14S112.6,232.4,120.4,232.4L120.4,232.4z"/>
</g>
</svg>
