<?xml version="1.0" encoding="utf-8"?>
<!-- Generator: Adobe Illustrator 24.1.2, SVG Export Plug-In . SVG Version: 6.00 Build 0)  -->
<svg version="1.1" id="Capa_1" xmlns="http://www.w3.org/2000/svg" xmlns:xlink="http://www.w3.org/1999/xlink" x="0px" y="0px"
	 viewBox="0 0 342.2 342.2" style="enable-background:new 0 0 342.2 342.2;" xml:space="preserve">
<style type="text/css">
	.st0{fill:#E20188;}
</style>
<g>
	<path class="st0" d="M171.1,342.2c94.2,0,171.1-76.9,171.1-171.1C342.2,76.9,265.2,0,171.1,0C76.9-0.6,0,76.3,0,170.5
		C0,265.2,76.9,342.2,171.1,342.2L171.1,342.2z M97.2,159.4H160V96.6c0-6.2,4.9-11.7,11.7-11.7c6.8,0,11.7,4.9,11.7,11.7v62.8h62.8
		c6.2,0,11.7,4.9,11.7,11.7c0,6.8-4.9,11.7-11.7,11.7l-63.4,0v62.8c0,6.2-4.9,11.7-11.7,11.7c-6.8,0-11.7-4.9-11.7-11.7l0-63.4H97.2
		c-6.2,0-11.7-4.9-11.7-11.7S90.5,159.4,97.2,159.4L97.2,159.4z"/>
</g>
</svg>
