<?xml version="1.0" encoding="utf-8"?>
<!-- Generator: Adobe Illustrator 24.1.2, SVG Export Plug-In . SVG Version: 6.00 Build 0)  -->
<svg version="1.1" id="Capa_1" xmlns="http://www.w3.org/2000/svg" xmlns:xlink="http://www.w3.org/1999/xlink" x="0px" y="0px"
	 viewBox="0 0 477.5 495.5" style="enable-background:new 0 0 477.5 495.5;" xml:space="preserve">
<style type="text/css">
	.st0{fill:#E20188;}
</style>
<g>
	<path class="st0" d="M270.9,189.6c27.3,0,54.2,11.9,77.1,33.8c6.1,5.3,6.5,14.6,0.9,20.4c-5.6,5.8-14.9,5.8-20.4,0
		c-18.7-17.9-38.4-26.1-57.6-26.1c-19.2,0-38.8,8.1-57.6,26.1c-2.7,2.7-6.4,4.1-10.2,4c-12.6-0.3-18.5-15.8-9.3-24.5
		C216.8,201.5,243.7,189.6,270.9,189.6L270.9,189.6z M329.7,133.9c11.3,0,20.5,9.2,20.5,20.5c0,11.3-9.2,20.5-20.5,20.5
		c-11.3,0-20.4-9.2-20.4-20.5C309.3,143.1,318.4,133.9,329.7,133.9z M212.2,133.9c11.3,0,20.4,9.2,20.4,20.5
		c0,11.3-9.1,20.5-20.4,20.5c-11.3,0-20.5-9.2-20.5-20.5C191.7,143.1,200.9,133.9,212.2,133.9z M23.1,0C-4.4,0.8-8.8,42.3,17.8,49.5
		l34.7,12.3L93.5,275c4.9,25.5,13,48.6,24.3,68.4c16.6,29.3,45.5,50.8,81.1,50.8h176.9c31.9,0.6,31.9-50.5,0-49.9H198.9
		c-25.2-3.2-35.6-15.9-44.9-34.5h233.5c21.4,0,33.4-19,38.7-41L477.2,95c2.7-28.6-12.4-34.2-38.9-34.2L102.9,61l-9-27.6
		c-2.4-8.2-8.7-14.5-16.5-16.7L23.1,0z"/>
	<path class="st0" d="M361.8,419.7c-20.9,0-37.8,17-37.8,37.9c0,20.9,16.9,37.9,37.8,37.9c20.9,0,37.8-17,37.8-37.9
		C399.6,436.7,382.7,419.7,361.8,419.7z M210.9,419.7c-20.9,0-37.9,17-37.9,37.9c0,20.9,17,37.9,37.9,37.9c20.9,0,37.8-17,37.8-37.9
		C248.8,436.7,231.8,419.7,210.9,419.7z"/>
</g>
</svg>
