<?xml version="1.0" encoding="utf-8"?>
<!-- Generator: Adobe Illustrator 24.1.2, SVG Export Plug-In . SVG Version: 6.00 Build 0)  -->
<svg version="1.1" id="Capa_1" xmlns="http://www.w3.org/2000/svg" xmlns:xlink="http://www.w3.org/1999/xlink" x="0px" y="0px"
	 viewBox="0 0 390.4 559.4" style="enable-background:new 0 0 390.4 559.4;" xml:space="preserve">
<style type="text/css">
	.st0{fill:#7374FF;}
</style>
<g>
	<path class="st0" d="M21.3,90.7h348.9c11.8,0,21.3-9.5,21.3-21.3s-9.5-21.3-21.3-21.3H217.3V21.3C217.3,9.5,207.8,0,196,0
		s-21.3,9.5-21.3,21.3v27.4H21.3C9.5,48.7,0,58.2,0,70C0,81.2,9.5,90.7,21.3,90.7L21.3,90.7z"/>
	<path class="st0" d="M112,462c11.8,0,21.3-9.5,21.3-21.3V226.2c0-11.8-9.5-21.3-21.3-21.3s-21.3,9.5-21.3,21.3v215
		C90.7,452.5,100.2,462,112,462L112,462z"/>
	<path class="st0" d="M195.4,462c11.8,0,21.3-9.5,21.3-21.3V226.2c0-11.8-9.5-21.3-21.3-21.3s-21.3,9.5-21.3,21.3v215
		C174.2,452.5,183.7,462,195.4,462L195.4,462z"/>
	<path class="st0" d="M279.4,462c11.8,0,21.3-9.5,21.3-21.3V226.2c0-11.8-9.5-21.3-21.3-21.3s-21.3,9.5-21.3,21.3v215
		C258.2,452.5,267.7,462,279.4,462L279.4,462z"/>
	<path class="st0" d="M370.2,123.8H21.3C9.5,123.8,0,133.3,0,145v323.1c0,50.4,40.9,91.3,91.3,91.3H299c50.4,0,91.3-40.9,91.3-91.3
		V145C391.4,133.3,381.9,123.8,370.2,123.8L370.2,123.8z M348.9,468.7c0,26.9-21.8,49.3-49.3,49.3H91.8c-26.9,0-49.3-21.8-49.3-49.3
		V166.3h306.3L348.9,468.7L348.9,468.7z"/>
</g>
</svg>
