<?xml version="1.0" encoding="utf-8"?>
<!-- Generator: Adobe Illustrator 24.1.2, SVG Export Plug-In . SVG Version: 6.00 Build 0)  -->
<svg version="1.1" id="Capa_1" xmlns="http://www.w3.org/2000/svg" xmlns:xlink="http://www.w3.org/1999/xlink" x="0px" y="0px"
	 viewBox="0 0 493 478.4" style="enable-background:new 0 0 493 478.4;" xml:space="preserve">
<style type="text/css">
	.st0{fill:#E20188;}
</style>
<g>
	<path class="st0" d="M433.9,52.7c2.4,0.1,4.6,0.9,6.3,2.6l8.3,8.3c3.9,3.9,3.4,10.7-1.1,15.2l-73.2,73.3c-3.5,3.5-10.3,3.8-14.1,0
		l-33.8-33.9c-4.5-4.5-5-11.3-1.1-15.2l8.3-8.3c3.9-3.9,10.7-3.4,15.2,1.1l18.5,18.5L425,56.4C427.6,53.9,430.8,52.6,433.9,52.7
		L433.9,52.7z M386.9-2.5c-58.6,0-106.1,47.6-106.1,106.3s47.5,106.3,106.1,106.3c58.6,0,106.1-47.6,106.1-106.3
		C493,45.1,445.5-2.5,386.9-2.5z"/>
	<path class="st0" d="M22.3,0C-4.3,0.7-8.5,40.8,17.2,47.8l33.5,11.9l39.4,205.8c4.7,24.6,12.6,46.9,23.5,66.1
		c16.1,28.2,43.9,49.1,78.3,49.1h170.8c30.8,0.6,30.8-48.8,0-48.2H192c-24.3-3.1-34.4-15.4-43.3-33.3h225.4
		c20.7,0,31.3-18.6,37.3-39.6c5.6-19.6,3.8-19.6-9.6-17.8c-4.9,0.6-9.9,0.8-15,0.8c-76.1,0-138.6-62.5-138.6-138.8
		c0-8,0-15.9,2-23.4c4.8-18-4.6-21.6-21.7-21.6L99.4,58.9l-8.7-26.6c-2.3-7.9-8.4-14-15.9-16.2L22.3,0z"/>
	<path class="st0" d="M349.3,405.2c-20.2,0-36.5,16.4-36.5,36.6c0,20.2,16.3,36.6,36.5,36.6c20.2,0,36.6-16.4,36.6-36.6
		C385.8,421.6,369.5,405.2,349.3,405.2z M203.6,405.2c-20.2,0-36.6,16.4-36.6,36.6c0,20.2,16.4,36.6,36.6,36.6
		c20.2,0,36.6-16.4,36.6-36.6C240.2,421.6,223.8,405.2,203.6,405.2z"/>
</g>
</svg>
