<svg id="Capa_1" data-name="Capa 1" xmlns="http://www.w3.org/2000/svg" viewBox="0 0 391.5 559.4"><defs><style>.cls-1{fill:#e20188;}</style></defs><path class="cls-1" d="M21.3,90.7H370.2a21.3,21.3,0,1,0,0-42.6H217.3V21.3a21.3,21.3,0,0,0-42.6,0V48.7H21.3A21.25,21.25,0,0,0,0,70C0,81.2,9.5,90.7,21.3,90.7Z"/><path class="cls-1" d="M112,462a21.25,21.25,0,0,0,21.3-21.3V226.2a21.3,21.3,0,0,0-42.6,0v215c0,11.3,9.5,20.8,21.3,20.8Z"/><path class="cls-1" d="M195.4,462a21.25,21.25,0,0,0,21.3-21.3V226.2a21.3,21.3,0,1,0-42.6,0v215A21.28,21.28,0,0,0,195.4,462Z"/><path class="cls-1" d="M279.4,462a21.25,21.25,0,0,0,21.3-21.3V226.2a21.3,21.3,0,0,0-42.6,0v215A21.28,21.28,0,0,0,279.4,462Z"/><path class="cls-1" d="M370.2,123.8H21.3A21.23,21.23,0,0,0,0,145V468.1a91.33,91.33,0,0,0,91.3,91.3H299a91.33,91.33,0,0,0,91.3-91.3V145c1.1-11.7-8.4-21.2-20.1-21.2ZM348.9,468.7A49.33,49.33,0,0,1,299.6,518H91.8a49.33,49.33,0,0,1-49.3-49.3V166.3H348.8l.1,302.4Z"/></svg>