<?xml version="1.0" encoding="utf-8"?>
<!-- Generator: Adobe Illustrator 24.1.2, SVG Export Plug-In . SVG Version: 6.00 Build 0)  -->
<svg version="1.1" id="Capa_1" xmlns="http://www.w3.org/2000/svg" xmlns:xlink="http://www.w3.org/1999/xlink" x="0px" y="0px"
	 viewBox="0 0 298.4 516.9" style="enable-background:new 0 0 298.4 516.9;" xml:space="preserve">
<style type="text/css">
	.st0{fill:#FFFFFF;}
</style>
<g>
	<path class="st0" d="M293.1,7.4C289,2.7,283.1,0,276.8,0H21.5C15.3,0,9.4,2.7,5.3,7.4c-4.1,4.7-5.9,10.9-5.1,17.1l29.6,215.4
		c1.5,10.6,10.6,18.6,21.3,18.6h65.7v75.4h-10.8c-6,0-10.8,4.8-10.8,10.8l0,118.5c0,29.7,24.2,53.9,53.8,53.9s53.8-24.2,53.8-53.9
		V344.6c0-6-4.8-10.8-10.8-10.8h-10.8v-75.4h65.7c10.7,0,19.9-8,21.3-18.6l29.6-215.4C299,18.3,297.2,12.1,293.1,7.4z M181.5,463.1
		c0,17.8-14.5,32.3-32.3,32.3c-17.8,0-32.3-14.5-32.3-32.3V355.4h64.6V463.1z M160,333.8h-21.5v-75.4H160V333.8z M247.2,236.9
		L247.2,236.9L247.2,236.9l-76.1,0l-43.4,0H51.2L21.5,21.5l255.3,0L247.2,236.9z"/>
	<path class="st0" d="M149.2,204.6c-6,0-10.8-4.8-10.8-10.8V64.6c0-6,4.8-10.8,10.8-10.8S160,58.7,160,64.6v129.2
		C160,199.8,155.1,204.6,149.2,204.6z"/>
	<path class="st0" d="M95.3,204.6c-6,0-10.8-4.8-10.8-10.8V64.6c0-6,4.8-10.8,10.8-10.8s10.8,4.8,10.8,10.8v129.2
		C106.1,199.8,101.3,204.6,95.3,204.6z"/>
	<path class="st0" d="M203,204.6c-6,0-10.8-4.8-10.8-10.8V64.6c0-6,4.8-10.8,10.8-10.8s10.8,4.8,10.8,10.8v129.2
		C213.8,199.8,209,204.6,203,204.6z"/>
</g>
</svg>
