<?xml version="1.0" encoding="utf-8"?>
<!-- Generator: Adobe Illustrator 24.1.2, SVG Export Plug-In . SVG Version: 6.00 Build 0)  -->
<svg version="1.1" id="Capa_1" xmlns="http://www.w3.org/2000/svg" xmlns:xlink="http://www.w3.org/1999/xlink" x="0px" y="0px"
	 viewBox="0 0 490 525" style="enable-background:new 0 0 490 525;" xml:space="preserve">
<style type="text/css">
	.st0{fill:#FFFFFF;}
</style>
<g>
	<path class="st0" d="M385,87.5H210c-9.7,0-17.5,7.8-17.5,17.5s7.8,17.5,17.5,17.5h175c9.7,0,17.5-7.8,17.5-17.5
		S394.7,87.5,385,87.5z"/>
	<path class="st0" d="M420,0H68.6h-0.4C30.6,0.9,0,32.3,0,70c0,9.7,7.8,17.5,17.5,17.5H105v420c0,6.1,3.1,11.7,8.3,14.9
		c5.1,3.2,11.6,3.4,17,0.8l27.2-13.6l27.2,13.6c4.9,2.5,10.7,2.5,15.7,0l27.2-13.6l27.2,13.6c4.9,2.5,10.7,2.5,15.7,0l27.2-13.6
		l27.2,13.6c4.9,2.5,10.7,2.5,15.7,0l27.2-13.6l27.2,13.6c4.9,2.5,10.7,2.5,15.7,0l27.2-13.6l27.2,13.6c2.5,1.2,5.1,1.9,7.8,1.9
		c3.2,0,6.4-0.9,9.2-2.6c5.2-3.2,8.3-8.8,8.3-14.9V70C490,31.4,458.6,0,420,0L420,0z M39.8,52.5C45.8,42.3,56.9,35.3,70,35
		c12.9,0,24.3,7.1,30.3,17.5H39.8z M455,479.2l-9.7-4.8c-4.9-2.5-10.7-2.5-15.7,0l-27.2,13.6l-27.2-13.6c-2.5-1.2-5.1-1.9-7.8-1.9
		s-5.4,0.6-7.8,1.8l-27.2,13.6l-27.2-13.6c-4.9-2.5-10.7-2.5-15.7,0l-27.2,13.6l-27.2-13.6c-4.9-2.5-10.7-2.5-15.7,0l-27.2,13.6
		l-27.2-13.6c-4.9-2.5-10.7-2.5-15.7,0l-9.7,4.8V70c0-12.7-3.4-24.7-9.4-35H420c19.3,0,35,15.7,35,35L455,479.2z"/>
	<path class="st0" d="M358.8,280H385c9.7,0,17.5-7.8,17.5-17.5S394.7,245,385,245h-8.8c0-9.7-7.8-17.5-17.5-17.5
		s-17.5,7.8-17.5,17.5v3.7c-15.4,6.8-26.3,22.2-26.3,40c0,24.1,19.6,43.8,43.8,43.8c4.8,0,8.8,3.9,8.8,8.8s-3.9,8.8-8.8,8.8h-26.3
		c-9.7,0-17.5,7.8-17.5,17.5s7.8,17.5,17.5,17.5h8.8c0,9.7,7.8,17.5,17.5,17.5s17.5-7.8,17.5-17.5v-3.7c15.4-6.8,26.3-22.2,26.3-40
		c0-24.1-19.6-43.8-43.8-43.8c-4.8,0-8.8-3.9-8.8-8.8S353.9,280,358.8,280z"/>
	<path class="st0" d="M385,157.5H210c-9.7,0-17.5,7.8-17.5,17.5s7.8,17.5,17.5,17.5h175c9.7,0,17.5-7.8,17.5-17.5
		S394.7,157.5,385,157.5z"/>
	<path class="st0" d="M262.5,297.5H210c-9.7,0-17.5,7.8-17.5,17.5s7.8,17.5,17.5,17.5h52.5c9.7,0,17.5-7.8,17.5-17.5
		S272.2,297.5,262.5,297.5z"/>
	<path class="st0" d="M262.5,227.5H210c-9.7,0-17.5,7.8-17.5,17.5c0,9.7,7.8,17.5,17.5,17.5h52.5c9.7,0,17.5-7.8,17.5-17.5
		S272.2,227.5,262.5,227.5z"/>
	<path class="st0" d="M262.5,367.5H210c-9.7,0-17.5,7.8-17.5,17.5s7.8,17.5,17.5,17.5h52.5c9.7,0,17.5-7.8,17.5-17.5
		S272.2,367.5,262.5,367.5z"/>
</g>
</svg>
