<?xml version="1.0" encoding="utf-8"?>
<!-- Generator: Adobe Illustrator 24.1.2, SVG Export Plug-In . SVG Version: 6.00 Build 0)  -->
<svg version="1.1" id="Capa_1" xmlns="http://www.w3.org/2000/svg" xmlns:xlink="http://www.w3.org/1999/xlink" x="0px" y="0px"
	 viewBox="0 0 507.5 542.5" style="enable-background:new 0 0 507.5 542.5;" xml:space="preserve">
<style type="text/css">
	.st0{fill:#FFFFFF;}
</style>
<g>
	<path class="st0" d="M19,245h469.5c5,0,9.7-2.1,13-5.8c3.3-3.7,4.9-8.6,4.4-13.6C491.7,97,383.3,0,253.7,0S15.8,97,1.6,225.6
		c-0.6,4.9,1,9.9,4.4,13.6C9.3,242.9,14,245,19,245L19,245z M253.8,35c105.1,0,194,74,214.3,175H39.4C59.8,109,148.7,35,253.8,35
		L253.8,35z"/>
	<path class="st0" d="M8.8,262.5h490v35H8.8V262.5z"/>
	<path class="st0" d="M365.3,336.3c-9.4,7.5-15.6,12.5-29.9,12.5c-14.3,0-20.5-5-29.9-12.5c-11.2-9-25.2-20.2-51.8-20.2
		c-26.6,0-40.5,11.2-51.8,20.2c-9.4,7.5-15.6,12.5-29.9,12.5c-14.3,0-20.5-5-29.9-12.5c-11.2-9-25.2-20.2-51.8-20.2
		c-26.5,0-40.5,11.2-51.7,20.2c-9.4,7.5-15.6,12.5-29.9,12.5v35c26.5,0,40.5-11.2,51.7-20.2c9.4-7.5,15.6-12.5,29.9-12.5
		c14.3,0,20.5,5,29.9,12.5c11.2,9,25.2,20.2,51.8,20.2c26.6,0,40.5-11.2,51.8-20.2c9.4-7.5,15.6-12.5,29.9-12.5
		c14.3,0,20.5,5,29.9,12.5c11.2,9,25.2,20.2,51.7,20.2c26.6,0,40.6-11.2,51.8-20.2c9.4-7.5,15.6-12.5,29.9-12.5
		c14.3,0,20.5,5,29.9,12.5c11.2,9,25.2,20.2,51.8,20.2v-35c-14.3,0-20.5-5-29.9-12.5c-11.2-9-25.2-20.2-51.8-20.2
		C390.5,316.2,376.5,327.3,365.3,336.3L365.3,336.3z"/>
	<path class="st0" d="M490,402.5H17.5C7.8,402.5,0,410.3,0,420v52.5c0,38.6,31.4,70,70,70h367.5c38.6,0,70-31.4,70-70V420
		C507.5,410.3,499.7,402.5,490,402.5z M472.5,472.5c0,19.3-15.7,35-35,35H70c-19.3,0-35-15.7-35-35v-35h437.5V472.5z"/>
</g>
</svg>
